<?xml version="1.0" encoding="UTF-8"?>
<svg version="1.1" viewBox="0 0 16.9337 25.4336"><g id="s" transform="matrix(0.17 0 0 0.17 0 0)"><path d="M49.8047 149.609C77.0508 149.609 99.6098 127.051 99.6098 99.8047C99.6098 72.6074 77.002 50 49.7559 50C22.5586 50 0 72.6074 0 99.8047C0 127.051 22.6075 149.609 49.8047 149.609ZM49.8047 141.309C26.7578 141.309 8.34957 122.852 8.34957 99.8047C8.34957 76.8066 26.709 58.3008 49.7559 58.3008C72.8028 58.3008 91.2598 76.8066 91.309 99.8047C91.3578 122.852 72.8516 141.309 49.8047 141.309Z" id="Shape"/><path d="M49.7559 25C77.002 25 99.6098 47.6074 99.6098 74.8047C99.6098 74.8701 99.6098 74.9356 99.6098 75.001L99.1322 75.001C96.9996 51.5806 75.8281 33.3008 49.7213 33.3008C23.6146 33.3008 2.54806 51.5806 0.476167 75.001L0.001 75L0 74.8047C0 47.8794 22.1097 25.4526 48.9414 25.0068L49.7559 25Z" id="Combined-Shape"/><path d="M49.7559 0C77.002 0 99.6098 22.6074 99.6098 49.8047C99.6098 49.8701 99.6098 49.9356 99.6098 50.001L99.1322 50.001C96.9996 26.5806 75.8281 8.3008 49.7213 8.3008C23.6146 8.3008 2.54806 26.5806 0.476167 50.001L0.001 50L0 49.8047C0 22.8794 22.1097 0.452607 48.9414 0.0067642L49.7559 0Z" id="Combined-Shape"/></g></svg>
